<svg xmlns="http://www.w3.org/2000/svg" width="32" height="32" viewBox="0 0 24 24"><mask id="lineMdRedditCircle0"><path fill="#fff" fill-opacity="0" stroke="#fff" stroke-dasharray="64" stroke-dashoffset="64" stroke-width="2" d="M12 3c4.97 0 9 4.03 9 9c0 4.97 -4.03 9 -9 9c-4.97 0 -9 -4.03 -9 -9c0 -4.97 4.03 -9 9 -9Z"><animate fill="freeze" attributeName="fill-opacity" begin="0.2s" dur="0.15s" values="0;1"/><animate fill="freeze" attributeName="stroke-dashoffset" dur="0.15s" values="64;0"/></path><path fill-opacity="0" d="M12 9.71c3.22 0 5.83 1.82 5.83 4.06c0 2.24 -2.61 4.06 -5.83 4.06c-3.22 0 -5.83 -1.82 -5.83 -4.06c0 -2.24 2.61 -4.06 5.83 -4.06Z"><animate fill="freeze" attributeName="fill-opacity" begin="0.35s" dur="0.1s" values="0;1"/></path><circle cx="8.99" cy="11.99" r="1.45" opacity="0"><animate fill="freeze" attributeName="cx" begin="0.45s" dur="0.1s" values="8.99;6.79"/><set fill="freeze" attributeName="opacity" begin="0.45s" to="1"/></circle><circle cx="15.01" cy="11.99" r="1.45" opacity="0"><animate fill="freeze" attributeName="cx" begin="0.45s" dur="0.1s" values="15.01;17.21"/><set fill="freeze" attributeName="opacity" begin="0.45s" to="1"/></circle><circle cx="16.18" cy="7.01" r="1.04" opacity="0"><set fill="freeze" attributeName="opacity" begin="0.9s" to="1"/></circle><path fill="none" stroke="#000" stroke-dasharray="10" stroke-dashoffset="10" stroke-linecap="round" stroke-linejoin="round" stroke-width=".54" d="M12 9.91l0.76 -3.64l3.24 0.71"><animate fill="freeze" attributeName="stroke-dashoffset" begin="0.8s" dur="0.1s" values="10;0"/></path><g fill="#fff" fill-opacity="0"><circle cx="9.71" cy="13.04" r="1.04"><animate fill="freeze" attributeName="fill-opacity" begin="0.55s" dur="0.1s" values="0;1"/></circle><circle cx="14.29" cy="13.04" r="1.04"><animate fill="freeze" attributeName="fill-opacity" begin="0.65s" dur="0.1s" values="0;1"/></circle></g><path fill="none" stroke="#fff" stroke-dasharray="6" stroke-dashoffset="6" stroke-linecap="round" stroke-linejoin="round" stroke-width=".54" d="M9.72 15.6c0 0 0.61 0.69 2.28 0.69c1.67 -0 2.28 -0.69 2.28 -0.69"><animate fill="freeze" attributeName="stroke-dashoffset" begin="0.75s" dur="0.1s" values="6;0"/></path></mask><rect width="24" height="24" fill="#8f8f8e" mask="url(#lineMdRedditCircle0)"/></svg>